<svg width="13" height="10" viewBox="0 0 13 10" fill="none" xmlns="http://www.w3.org/2000/svg">
<path d="M4.08363 10C8.9892 10 11.6735 6.15157 11.6735 2.81988C11.6735 2.71161 11.6735 2.60335 11.6683 2.49508C12.1885 2.14075 12.6411 1.69291 13 1.18602C12.5214 1.3878 12.0064 1.52067 11.4654 1.58465C12.0168 1.27461 12.4382 0.777559 12.6411 0.187008C12.1261 0.477362 11.5538 0.684055 10.9452 0.797244C10.4562 0.305118 9.76431 0 8.9996 0C7.52741 0 6.33093 1.13189 6.33093 2.52461C6.33093 2.72146 6.35694 2.91339 6.39856 3.10039C4.18247 2.99705 2.21609 1.98819 0.89996 0.462599C0.671069 0.836614 0.541017 1.26969 0.541017 1.73228C0.541017 2.60827 1.01441 3.38091 1.72709 3.83366C1.29012 3.8189 0.879152 3.70571 0.520208 3.5187C0.520208 3.52854 0.520208 3.53839 0.520208 3.55315C0.520208 4.77362 1.44098 5.79724 2.65826 6.02854C2.43457 6.0876 2.20048 6.11713 1.95598 6.11713C1.78431 6.11713 1.61785 6.10236 1.45658 6.07283C1.79472 7.07677 2.78311 7.80512 3.94838 7.8248C3.03281 8.50394 1.88315 8.90748 0.634654 8.90748C0.421369 8.90748 0.208083 8.89764 0 8.87303C1.17567 9.58169 2.58023 10 4.08363 10Z" fill="white"/>
</svg>
