<svg width="6" height="12" viewBox="0 0 6 12" fill="none" xmlns="http://www.w3.org/2000/svg">
<path d="M1.29687 2.32402C1.29687 2.62642 1.29687 3.97618 1.29687 3.97618H0V5.99646H1.29687V12H3.96091V5.99662H5.74861C5.74861 5.99662 5.91603 5.02792 5.99719 3.96873C5.76451 3.96873 3.97098 3.96873 3.97098 3.96873C3.97098 3.96873 3.97098 2.7934 3.97098 2.58739C3.97098 2.38093 4.26145 2.10322 4.54853 2.10322C4.83507 2.10322 5.43985 2.10322 6 2.10322C6 1.82816 6 0.877753 6 7.21669e-09C5.25222 7.21669e-09 4.40149 7.21669e-09 4.02649 7.21669e-09C1.23102 -0.000139491 1.29687 2.02214 1.29687 2.32402Z" fill="white"/>
</svg>
