<svg width="14" height="14" viewBox="0 0 14 14" fill="none" xmlns="http://www.w3.org/2000/svg">
<path fill-rule="evenodd" clip-rule="evenodd" d="M7.00001 0C5.09891 0 4.86053 0.00805826 4.11391 0.0421245C3.36884 0.0761079 2.85999 0.19445 2.41473 0.367477C1.95441 0.546366 1.56405 0.785721 1.17488 1.17487C0.785728 1.56402 0.546375 1.95442 0.367488 2.41473C0.194452 2.85999 0.0761199 3.36884 0.0421144 4.11391C0.00805359 4.86053 0 5.09892 0 7.00001C0 8.90109 0.00805359 9.13947 0.0421144 9.88609C0.0761199 10.6312 0.194452 11.14 0.367488 11.5853C0.546375 12.0456 0.785728 12.436 1.17488 12.8251C1.56405 13.2143 1.95441 13.4536 2.41473 13.6325C2.85999 13.8055 3.36884 13.9239 4.11391 13.9579C4.86053 13.9919 5.09891 14 7.00001 14C8.90108 14 9.13947 13.9919 9.88609 13.9579C10.6312 13.9239 11.14 13.8055 11.5853 13.6325C12.0456 13.4536 12.436 13.2143 12.8251 12.8251C13.2143 12.436 13.4536 12.0456 13.6325 11.5853C13.8055 11.14 13.9239 10.6312 13.9579 9.88609C13.9919 9.13947 14 8.90109 14 7.00001C14 5.09892 13.9919 4.86053 13.9579 4.11391C13.9239 3.36884 13.8055 2.85999 13.6325 2.41473C13.4536 1.95442 13.2143 1.56402 12.8251 1.17487C12.436 0.785721 12.0456 0.546366 11.5853 0.367477C11.14 0.19445 10.6312 0.0761079 9.88609 0.0421245C9.13947 0.00805826 8.90108 0 7.00001 0ZM7.00001 1.26126C8.86908 1.26126 9.09048 1.2684 9.8286 1.30208C10.5111 1.3332 10.8817 1.44723 11.1284 1.5431C11.4551 1.67008 11.6883 1.82177 11.9333 2.06671C12.1782 2.31167 12.3299 2.54486 12.4569 2.8716C12.5528 3.11826 12.6668 3.48891 12.6979 4.1714C12.7316 4.90952 12.7387 5.13093 12.7387 7.00001C12.7387 8.86908 12.7316 9.09048 12.6979 9.8286C12.6668 10.5111 12.5528 10.8817 12.4569 11.1284C12.3299 11.4551 12.1782 11.6883 11.9333 11.9333C11.6883 12.1782 11.4551 12.3299 11.1284 12.4569C10.8817 12.5528 10.5111 12.6668 9.8286 12.6979C9.09059 12.7316 8.86922 12.7387 7.00001 12.7387C5.13078 12.7387 4.90944 12.7316 4.1714 12.6979C3.48891 12.6668 3.11826 12.5528 2.8716 12.4569C2.54486 12.3299 2.31168 12.1782 2.06673 11.9333C1.82179 11.6883 1.67008 11.4551 1.5431 11.1284C1.44723 10.8817 1.33321 10.5111 1.30207 9.8286C1.26839 9.09048 1.26126 8.86908 1.26126 7.00001C1.26126 5.13093 1.26839 4.90952 1.30207 4.1714C1.33321 3.48891 1.44723 3.11826 1.5431 2.8716C1.67008 2.54486 1.82178 2.31167 2.06672 2.06673C2.31168 1.82177 2.54486 1.67008 2.8716 1.5431C3.11826 1.44723 3.48891 1.3332 4.1714 1.30208C4.90952 1.2684 5.13092 1.26126 7.00001 1.26126ZM7.00001 9.33333C5.71133 9.33333 4.66667 8.28867 4.66667 7.00001C4.66667 5.71133 5.71133 4.66667 7.00001 4.66667C8.28867 4.66667 9.33333 5.71133 9.33333 7.00001C9.33333 8.28867 8.28867 9.33333 7.00001 9.33333ZM7.00001 3.40541C5.01475 3.40541 3.40541 5.01475 3.40541 7.00001C3.40541 8.98525 5.01475 10.5946 7.00001 10.5946C8.98525 10.5946 10.5946 8.98525 10.5946 7.00001C10.5946 5.01475 8.98525 3.40541 7.00001 3.40541ZM10.7366 4.1034C11.2006 4.1034 11.5766 3.72734 11.5766 3.26341C11.5766 2.79949 11.2006 2.4234 10.7366 2.4234C10.2727 2.4234 9.89664 2.79949 9.89664 3.26341C9.89664 3.72734 10.2727 4.1034 10.7366 4.1034Z" fill="white"/>
</svg>
